HIERARCHY
ROOT root
{
	OFFSET	0	13.1	24.9
	CHANNELS 6  Xposition Yposition Zposition Xrotation Yrotation Zrotation
	JOINT spine_1
	{
		OFFSET	0	9.99999	0
		CHANNELS 3  Xrotation Yrotation Zrotation
		JOINT spine_2
		{
			OFFSET	0	112	-10
			CHANNELS 3  Xrotation Yrotation Zrotation
			JOINT spine_3
			{
				OFFSET	0	206.5	19.3
				CHANNELS 3  Xrotation Yrotation Zrotation
				JOINT spine_4
				{
					OFFSET	0	110.4	14.6
					CHANNELS 3  Xrotation Yrotation Zrotation
					JOINT neck_1
					{
						OFFSET	0	71.8	-50.3
						CHANNELS 3  Xrotation Yrotation Zrotation
						JOINT neck_2
						{
							OFFSET	0	86.2	-25.8
							CHANNELS 3  Xrotation Yrotation Zrotation
							JOINT head_ee
							{
								OFFSET	0	179.8	-8.7
								CHANNELS 3  Xrotation Yrotation Zrotation
								End Site
								{
									OFFSET	1	0	0
								}
							}
						}
					}
					JOINT left_clavicle
					{
						OFFSET	-43.2	22.4	-70.8
						CHANNELS 3  Xrotation Yrotation Zrotation
						JOINT left_shoulder
						{
							OFFSET	-93.9	-5.79999	48.7
							CHANNELS 3  Xrotation Yrotation Zrotation
							JOINT left_elbow
							{
								OFFSET	-291.4	-30.8	15.2
								CHANNELS 3  Xrotation Yrotation Zrotation
								JOINT left_lowarm_twist
								{
									OFFSET	-110.7	-3.89999	13.6
									CHANNELS 3  Xrotation Yrotation Zrotation
									JOINT left_hand
									{
										OFFSET	-110.7	-3.89999	13.6
										CHANNELS 3  Xrotation Yrotation Zrotation
										JOINT left_ee
										{
											OFFSET	-80.8	-5.10001	12.1
											CHANNELS 3  Xrotation Yrotation Zrotation
											End Site
											{
												OFFSET	1	0	0
											}
										}
									}
								}
							}
						}
					}
					JOINT right_clavicle
					{
						OFFSET	43.2	22.4	-70.8
						CHANNELS 3  Xrotation Yrotation Zrotation
						JOINT right_shoulder
						{
							OFFSET	93.9	-5.79999	48.7
							CHANNELS 3  Xrotation Yrotation Zrotation
							JOINT right_elbow
							{
								OFFSET	291.4	-30.8	15.2
								CHANNELS 3  Xrotation Yrotation Zrotation
								JOINT right_lowarm_twist
								{
									OFFSET	110.7	-3.89999	13.6
									CHANNELS 3  Xrotation Yrotation Zrotation
									JOINT right_hand
									{
										OFFSET	110.7	-3.89999	13.6
										CHANNELS 3  Xrotation Yrotation Zrotation
										JOINT right_ee
										{
											OFFSET	80.8	-5.10001	12.1
											CHANNELS 3  Xrotation Yrotation Zrotation
											End Site
											{
												OFFSET	1	0	0
											}
										}
									}
								}
							}
						}
					}
				}
			}
		}
	}
	JOINT left_hip
	{
		OFFSET	-82.8	-127.5	0.300001
		CHANNELS 3  Xrotation Yrotation Zrotation
		JOINT left_knee
		{
			OFFSET	-28.2	-396.7	2.2
			CHANNELS 3  Xrotation Yrotation Zrotation
			JOINT left_ankle
			{
				OFFSET	-11.7	-411.3	35.4
				CHANNELS 3  Xrotation Yrotation Zrotation
				JOINT left_toes
				{
					OFFSET	0	-60	-88.6
					CHANNELS 3  Xrotation Yrotation Zrotation
					JOINT left_foot_ee
					{
						OFFSET	-22.5	-16.5	-42.2
						CHANNELS 3  Xrotation Yrotation Zrotation
						End Site
						{
							OFFSET	1	0	0
						}
					}
				}
			}
		}
	}
	JOINT right_hip
	{
		OFFSET	82.8	-127.5	0.300001
		CHANNELS 3  Xrotation Yrotation Zrotation
		JOINT right_knee
		{
			OFFSET	28.2	-396.7	2.2
			CHANNELS 3  Xrotation Yrotation Zrotation
			JOINT right_ankle
			{
				OFFSET	11.7	-411.3	35.4
				CHANNELS 3  Xrotation Yrotation Zrotation
				JOINT right_toes
				{
					OFFSET	0	-60	-88.6
					CHANNELS 3  Xrotation Yrotation Zrotation
					JOINT right_foot_ee
					{
						OFFSET	22.5	-16.5	-42.2
						CHANNELS 3  Xrotation Yrotation Zrotation
						End Site
						{
							OFFSET	1	0	0
						}
					}
				}
			}
		}
	}
}
MOTION
Frames: 5
Frame Time: 0.02
3221.39 740.491 -599.542 -11.1535 62.0001 13.3497 -1.26514 -0.435062 -1.60715 -1.26377 -0.331927 -1.63157 -1.25288 0.0547711 -1.66408 -1.25669 -0.20869 -1.65186 1.79622 12.5097 4.49196 2.08905 18.2762 5.9388 -0.0 0.0 -0.0 10.4539 -0.952132 20.6461 3.28322 -20.8806 49.0314 3.24269 -58.0832 1.80086 10.445 0.249281 -1.30913 1.33059 -18.2483 1.11079 -0.0 0.0 -0.0 8.89591 -10.1221 -16.8027 -21.5431 8.00777 -52.3325 0.566221 15.6684 -0.0779075 21.1239 -0.25448 2.67114 0.459945 -11.9471 -7.85887 0.0 0.0 0.0 -8.33603 31.4407 -5.12222 -8.58262 0.257084 1.29085 29.5561 -19.6956 -4.26567 18.29 -0.0 -0.0 -0.0 0.0 -0.0 31.9137 -0.345424 -3.7074 0.268696 0.0111575 0.0397238 -16.664 9.22301 -2.62904 3.19201 -0.0 -0.0 0.0 0.0 0.0 
3197.84 738.358 -607.535 -11.1309 62.968 12.4216 -1.35653 -0.445616 -1.32801 -1.35562 -0.360217 -1.35367 -1.34605 -0.03482 -1.40033 -1.34869 -0.255518 -1.37727 2.67618 12.265 2.15917 3.03769 19.6381 3.24837 -0.0 0.0 -0.0 10.5714 -1.87608 20.9375 1.74595 -20.3949 49.5906 3.27767 -58.3582 1.8306 13.4725 0.276552 -1.69483 1.00743 -20.5833 -2.0694 -0.0 0.0 -0.0 8.87692 -8.6024 -16.8913 -21.9412 7.76663 -52.563 0.593188 16.3755 -0.0853507 22.31 -0.239396 2.82189 0.839469 -9.70354 -9.45179 0.0 0.0 0.0 -8.47078 31.4422 -5.14306 -11.3336 0.298245 1.71093 33.2549 -20.1256 -4.69409 18.4335 -0.0 -0.0 -0.0 0.0 -0.0 31.8711 0.753776 -2.83748 -2.11705 -0.0813605 -0.31469 -15.171 9.12301 -2.38953 3.71877 -0.0 -0.0 0.0 0.0 0.0 
3184.52 740.53 -624.412 -12.772 63.7682 13.8706 -1.44167 -0.410365 -1.26826 -1.44084 -0.328838 -1.2918 -1.43244 -0.0167062 -1.33288 -1.43485 -0.226982 -1.31352 3.88973 11.8917 1.64596 4.2766 19.1974 2.51793 -0.0 0.0 -0.0 10.0848 -1.48384 19.8978 1.05236 -20.2439 49.8111 3.43069 -59.5123 1.96168 12.7768 0.272089 -1.60607 1.12604 -20.9381 -1.44384 -0.0 0.0 -0.0 9.32648 -8.06394 -17.7792 -21.338 8.07182 -53.13 0.600329 16.5618 -0.087375 22.4905 -0.236827 2.8448 0.809743 -10.1648 -9.4335 0.0 0.0 0.0 -8.92238 31.1198 -5.36697 -9.09159 0.26622 1.36842 33.0824 -19.9243 -4.6677 18.0718 -0.0 -0.0 -0.0 0.0 -0.0 32.0089 0.878281 -3.26896 -2.71864 -0.102351 -0.40463 -16.9209 7.755 -2.64889 3.77217 -0.0 -0.0 0.0 0.0 0.0 
3164.96 739.744 -643.528 -14.0252 63.525 14.7336 -1.44405 -0.206723 -1.15494 -1.44331 -0.132817 -1.16575 -1.43991 0.144477 -1.16436 -1.4418 -0.0412123 -1.17256 5.06527 12.1696 0.395974 5.57835 20.5482 0.957714 -0.0 0.0 -0.0 9.31962 -2.13456 18.3256 -0.904626 -21.8705 49.5948 3.23541 -58.0255 1.79469 12.2155 0.267704 -1.53452 1.35824 -19.8168 0.591714 -0.0 0.0 -0.0 9.47752 -7.73891 -18.0933 -20.7817 8.3334 -53.8823 0.611875 16.8624 -0.0906953 22.5896 -0.235386 2.85738 0.775559 -10.7706 -9.44125 0.0 0.0 0.0 -8.67662 31.2861 -5.94151 -10.1962 0.283673 1.53701 30.9249 -19.5154 -4.41519 17.5501 -0.0 -0.0 -0.0 0.0 -0.0 31.5973 0.741964 -3.63371 -2.94358 -0.109956 -0.438314 -15.5886 8.57544 -2.44869 4.37413 -0.0 -0.0 0.0 0.0 0.0 
3150.83 739.81 -654.057 -13.543 64.0145 13.9333 -1.43851 -0.207732 -1.01644 -1.43795 -0.142636 -1.0276 -1.43483 0.102413 -1.03238 -1.43631 -0.0619086 -1.0356 4.58636 12.0078 1.39384 5.01175 19.4887 2.15924 -0.0 0.0 -0.0 9.91094 -2.00535 19.5539 -1.60154 -20.5626 48.5788 3.00922 -56.1334 1.60479 13.2969 0.275527 -1.67241 1.14173 -20.3023 -1.05735 -0.0 0.0 -0.0 9.87678 -7.43617 -18.8838 -20.0067 9.1261 -53.907 0.601561 16.594 -0.0877266 22.7101 -0.233605 2.87267 0.786392 -10.6322 -9.45905 0.0 0.0 0.0 -8.4606 31.2553 -6.22558 -11.5053 0.300145 1.7372 32.5247 -19.6431 -4.59666 17.8256 -0.0 -0.0 -0.0 0.0 -0.0 31.4007 1.47264 -2.99849 -4.81808 -0.168173 -0.72009 -15.6388 8.32913 -2.4534 4.19948 -0.0 -0.0 0.0 0.0 0.0 
